<svg width="80" height="80" viewBox="0 0 80 80" fill="none" xmlns="http://www.w3.org/2000/svg">
<g clip-path="url(#clip0)">
<path d="M4.70485 41.5544C6.69454 35.9288 12.8775 27.303 20.0903 20.0903C27.3031 12.8775 35.9288 6.69453 41.5544 4.70485C43.4549 4.0325 45.5406 5.02766 46.2128 6.92891C46.885 8.82938 45.8894 10.915 43.9888 11.5872C38.8374 13.4092 30.6639 19.8408 25.2524 25.2523C19.8408 30.6638 13.4092 38.8374 11.5872 43.9888C10.915 45.8894 8.82938 46.885 6.92891 46.2128C5.0361 45.5433 4.02969 43.463 4.70485 41.5544V41.5544Z" fill="#6FCF97"/>
<path d="M38.4456 75.2951C44.0712 73.3055 52.697 67.1225 59.9097 59.9097C67.1225 52.6969 73.3054 44.0712 75.2951 38.4456C75.9675 36.5452 74.9723 34.4594 73.0711 33.7872C71.1706 33.115 69.085 34.1106 68.4128 36.0113C66.5908 41.1627 60.1592 49.3361 54.7476 54.7477C49.3362 60.1592 41.1626 66.5908 36.0112 68.4128C34.1108 69.085 33.115 71.1706 33.7872 73.0711C34.4567 74.9639 36.537 75.9703 38.4456 75.2951V75.2951Z" fill="#6FCF97"/>
<path d="M35.3345 31.0864C38.7856 34.2752 43.0694 35.6919 48.8523 33.5158L61.9536 32.2377L62.6884 31.9089L56.1017 23.8983L42.1078 12.3919C36.7436 17.7561 34.4178 24.842 35.3345 31.0864V31.0864Z" fill="#BCE1E9"/>
<path d="M48.8523 33.5158C44.244 30.9644 38.8834 30.6053 35.3345 31.0864C35.6072 32.9433 36.1631 34.7264 37.0153 36.3669C37.2328 36.7856 36.7856 37.2328 36.367 37.0151C29.21 33.2972 19.3511 35.1484 12.392 42.1076L23.8984 56.1015L37.8923 67.608C44.8515 60.6487 46.7026 50.79 42.9848 43.633C42.7673 43.2142 43.2145 42.767 43.6332 42.9845C50.7903 46.7025 60.6492 44.8512 67.6082 37.892L62.6886 31.9087L61.9537 32.2375L48.8523 33.5158Z" fill="#F2C94C"/>
<path d="M61.9536 32.2376C64.9101 35.1942 57.7976 38.4686 48.8523 33.5158C51.4922 31.492 59.2258 29.51 61.9536 32.2376Z" fill="#EE8C49"/>
<path d="M37.7909 14.9044C40.0591 13.402 42.205 12.218 43.9886 11.5872C45.8892 10.915 46.8848 8.82938 46.2126 6.92891C45.5405 5.02766 43.4547 4.0325 41.5542 4.70485C39.0226 5.60016 35.883 7.34672 32.5384 9.65203L37.7909 14.9044Z" fill="#4CA778"/>
<path d="M73.0711 33.7873C71.1706 33.1152 69.085 34.1108 68.4128 36.0114C67.7819 37.795 66.598 39.9411 65.0956 42.2091L70.348 47.4614C72.6533 44.117 74.3998 40.9772 75.2951 38.4456C75.9675 36.5453 74.9723 34.4595 73.0711 33.7873V33.7873Z" fill="#4CA778"/>
<path d="M78.8226 36.2715L55.6608 13.1097C51.7886 14.3241 50.5611 18.6126 53.8315 24.1158L72.405 42.6892C73.9748 44.259 76.52 44.259 78.0898 42.6892L78.8226 41.9564C80.3925 40.3865 80.3925 37.8414 78.8226 36.2715Z" fill="#4CA778"/>
<path d="M55.6608 13.1097L43.7284 1.17735C42.1586 -0.392492 39.6134 -0.392492 38.0436 1.17735L37.3108 1.91017C35.7409 3.48001 35.7409 6.02517 37.3108 7.59501L53.8316 24.1158C52.7281 21.0011 53.6858 15.8199 55.6608 13.1097V13.1097Z" fill="#6FCF97"/>
<path d="M9.65204 32.5386C7.34672 35.883 5.60016 39.0228 4.70485 41.5544C4.02969 43.463 5.0361 45.5433 6.92891 46.2128C8.82938 46.885 10.915 45.8894 11.5872 43.9887C12.218 42.2051 13.402 40.0591 14.9044 37.7911L9.65204 32.5386Z" fill="#4CA778"/>
<path d="M42.2089 65.0958C39.9407 66.5981 37.7948 67.782 36.0112 68.413C34.1108 69.0852 33.115 71.1708 33.7872 73.0713C34.4567 74.9641 36.537 75.9705 38.4456 75.2953C40.9772 74.4 44.1168 72.6535 47.4612 70.3481L42.2089 65.0958Z" fill="#4CA778"/>
<path d="M42.689 72.405L19.5273 49.2431C15.3068 49.6458 15.6593 56.4747 17.6981 60.2492L36.2715 78.8227C37.8414 80.3925 40.3865 80.3925 41.9564 78.8227L42.6892 78.0899C44.2589 76.52 44.2588 73.9749 42.689 72.405V72.405Z" fill="#4CA778"/>
<path d="M19.5273 49.2431L7.59498 37.3108C6.02514 35.7409 3.47998 35.7409 1.91013 37.3108L1.17732 38.0436C-0.392522 39.6134 -0.392522 42.1586 1.17732 43.7284L17.6981 60.2492C16.5947 57.1347 17.5523 51.9534 19.5273 49.2431V49.2431Z" fill="#6FCF97"/>
<path d="M23.2097 43.7463C22.9098 43.7463 22.6098 43.6319 22.3811 43.403C21.9234 42.9453 21.9234 42.2033 22.3811 41.7458L23.747 40.38C24.2047 39.9223 24.9467 39.9223 25.4042 40.38C25.8619 40.8377 25.8619 41.5797 25.4042 42.0373L24.0383 43.4031C23.8095 43.6319 23.5095 43.7463 23.2097 43.7463Z" fill="#37352F"/>
<path d="M37.4256 57.962C37.1258 57.962 36.8258 57.8477 36.597 57.6187C36.1394 57.1611 36.1394 56.4191 36.597 55.9614L37.9628 54.5956C38.4205 54.138 39.1625 54.138 39.62 54.5956C40.0777 55.0533 40.0777 55.7953 39.62 56.2528L38.2542 57.6186C38.0255 57.8477 37.7255 57.962 37.4256 57.962Z" fill="#37352F"/>
<path d="M31.99 52.6958C30.7503 52.6958 29.5575 52.2055 28.6759 51.3241C27.7183 50.3664 27.2223 49.0409 27.3153 47.6873C27.3597 47.0417 27.9176 46.5541 28.5648 46.5986C29.2105 46.643 29.698 47.2023 29.6536 47.8481C29.607 48.5255 29.8548 49.1884 30.3333 49.6669C30.8117 50.1453 31.4747 50.3931 32.152 50.3466C32.7973 50.3044 33.3572 50.7897 33.4016 51.4353C33.4459 52.0809 32.9584 52.6405 32.3128 52.6848C32.2048 52.6922 32.0972 52.6958 31.99 52.6958V52.6958Z" fill="#37352F"/>
</g>
<defs>
<clipPath id="clip0">
<rect width="80" height="80" fill="white"/>
</clipPath>
</defs>
</svg>
